# xmcd CD database file
#
# Track frame offsets:
#	150
#	26572
#	58639
#	91735
#	125662
#	152661
#	187177
#
# Disc length: 2830 seconds
#
# Revision: 0
# Processed by: cddbd v1.5.2PL0 Copyright (c) Steve Scherf et al.
# Submitted via: CDex 1.70beta2
#
DISCID=570b0c07
DTITLE=Geoff Vidal - She Likes That
DYEAR=2010
DGENRE=Jazz
TTITLE0=Darjeeling
TTITLE1=Different Planes
TTITLE2=O-Zoning
TTITLE3=Time Apart
TTITLE4=Freediver
TTITLE5=Lanusa
TTITLE6=She Likes That
EXTD=YEAR: 2010
EXTT0=
EXTT1=
EXTT2=
EXTT3=
EXTT4=
EXTT5=
EXTT6=
PLAYORDER=
